<?xml version="1.0" standalone="no"?>
<!DOCTYPE svg PUBLIC "-//W3C//DTD SVG 20010904//EN"
 "http://www.w3.org/TR/2001/REC-SVG-20010904/DTD/svg10.dtd">
<svg version="1.0" xmlns="http://www.w3.org/2000/svg"
 width="512.000000pt" height="512.000000pt" viewBox="0 0 512.000000 512.000000"
 preserveAspectRatio="xMidYMid meet">

<g transform="translate(0.000000,512.000000) scale(0.100000,-0.100000)"
fill="#000000" stroke="none">
<path d="M1015 5108 c-51 -18 -106 -62 -196 -154 -139 -143 -133 -123 -137
-492 -4 -407 -10 -385 145 -543 174 -178 119 -164 658 -164 408 0 454 2 487
17 52 25 106 74 129 120 l19 38 88 0 c110 0 151 18 239 102 l65 63 206 5 c230
6 226 4 307 81 l51 48 50 -50 c74 -76 83 -79 244 -79 84 0 150 5 163 11 12 6
48 36 80 67 l57 56 58 -56 c31 -31 67 -61 79 -67 35 -18 272 -14 308 5 58 30
273 199 296 233 29 41 31 120 5 169 -19 37 -273 232 -326 251 -24 8 -250 11
-806 11 l-774 0 -67 64 c-93 87 -119 99 -230 104 l-92 4 -28 45 c-15 24 -42
55 -60 69 -70 53 -81 54 -552 53 -282 0 -447 -4 -466 -11z m1326 -404 c114
-107 39 -99 868 -102 l724 -3 69 -50 c38 -28 73 -59 78 -69 14 -25 12 -72 -3
-91 -27 -34 -151 -119 -175 -119 -17 0 -45 19 -87 59 -108 104 -182 104 -290
0 l-62 -59 -87 0 -88 0 -64 59 c-114 104 -191 104 -299 0 l-62 -59 -180 0
c-225 0 -246 -6 -349 -101 l-74 -69 -60 0 -60 0 0 335 0 335 65 0 66 0 70 -66z
m-973 -266 l2 -168 -90 0 -90 0 0 163 c0 90 3 167 7 171 4 4 43 5 88 4 l80 -3
3 -167z"/>
<path d="M1055 3562 c-112 -39 -200 -113 -248 -209 -13 -26 -59 -154 -102
-283 -43 -129 -80 -238 -82 -243 -2 -4 -19 4 -37 18 -57 44 -108 55 -245 55
-150 0 -202 -14 -259 -69 -57 -56 -77 -104 -77 -186 1 -109 50 -184 150 -231
41 -20 66 -24 145 -24 l95 0 -177 -177 c-97 -98 -184 -194 -195 -213 -17 -33
-18 -72 -18 -670 0 -634 0 -635 22 -676 23 -43 79 -98 118 -116 23 -10 23 -14
27 -182 4 -190 11 -218 80 -282 74 -71 63 -69 473 -69 410 0 399 -2 473 69 68
63 76 93 80 274 l4 162 1278 0 1278 0 4 -162 c4 -181 12 -211 80 -274 74 -71
63 -69 473 -69 360 0 371 1 410 22 47 25 95 74 121 123 16 29 19 63 22 206 4
168 4 172 27 182 39 18 95 73 118 116 22 41 22 42 22 676 0 598 -1 637 -18
670 -11 19 -98 114 -194 212 l-176 176 104 4 c114 4 158 18 210 71 52 52 73
104 74 182 0 82 -20 130 -77 186 -57 55 -109 69 -259 69 -137 0 -188 -11 -245
-55 -18 -14 -35 -22 -37 -18 -2 5 -39 114 -82 243 -43 129 -91 261 -108 292
-38 75 -110 141 -195 181 l-67 32 -1470 2 c-1374 2 -1473 1 -1520 -15z m2876
-179 c14 -16 32 -39 41 -53 13 -22 258 -744 258 -763 0 -4 -789 -7 -1754 -7
l-1754 0 120 361 c105 316 125 367 156 401 35 39 74 64 122 79 14 4 646 8
1406 8 l1380 1 25 -27z m-2884 -1791 c78 -64 142 -123 142 -129 1 -10 -73 -13
-339 -13 l-340 0 0 123 c0 68 3 127 7 130 3 4 92 7 197 7 l191 0 142 -118z
m3561 -14 l3 -128 -341 0 c-266 0 -340 3 -339 13 0 6 64 65 142 129 l142 118
195 -3 195 -2 3 -127z"/>
</g>
</svg>
